grf
version=1
nRows=14
nColumns=28
inDegrees=no
endheader
time	ground_force_1_vx	ground_force_1_vy	ground_force_1_vz	ground_force_1_px	ground_force_1_py	ground_force_1_pz	ground_moment_1_mx	ground_moment_1_my	ground_moment_1_mz	ground_force_2_vx	ground_force_2_vy	ground_force_2_vz	ground_force_2_px	ground_force_2_py	ground_force_2_pz	ground_moment_2_mx	ground_moment_2_my	ground_moment_2_mz	ground_force_3_vx	ground_force_3_vy	ground_force_3_vz	ground_force_3_px	ground_force_3_py	ground_force_3_pz	ground_moment_3_mx	ground_moment_3_my	ground_moment_3_mz
      0.45000000	      0.52526911	      0.36327092	      1.42415930	    276.63295946	  -1438.56819399	      2.37179923	      0.02625558	      0.09494052	     52.02229202	     25.29865079	     28.12412160	   -696.87351579	    458.61939423	  -1831.80420164	      0.07905668	      0.28241996	      3.65251987	  -4376.71747399	      1.69839101	     -0.49488597	      5.41682257	    459.45255187	   -367.65615851	      0.55541246	     -0.07843267	      0.57616066	    280.55575769
      0.46000000	      0.39907621	      0.19874131	      1.56045915	    338.15947402	  -1448.05025047	      2.35805160	      0.03772058	      0.13639810	     74.73881560	     27.36420605	     33.35527266	   -738.97200683	    458.32713720	  -1826.94786493	      0.08309059	      0.31704484	      4.10032121	  -4913.30592070	      1.63174393	     -0.81543926	      5.10435239	    431.84246574	   -337.36190655	      0.48548023	     -0.07924368	      0.58211826	    283.45674985
      0.47000000	      0.68324548	      0.28868422	      0.96596350	    298.12828728	  -1495.16175731	      2.46423364	     -0.02509993	     -0.09076168	    -49.73251205	     31.34063531	     39.54061207	   -783.92550557	    457.82400028	  -1822.62293576	      0.08666743	      0.33450019	      4.32607027	  -5183.81501748	      1.52699829	     -0.73077637	      4.99791414	    453.50601366	   -355.95586308	      0.52972183	     -0.07357662	      0.54048850	    263.18554739
      0.48000000	      0.65034675	      0.27863378	      1.56676382	    336.72431928	  -1481.31284849	      2.41948006	     -0.03108261	     -0.11239512	    -61.58647125	     36.51438854	     45.24076798	   -829.66750268	    457.12356911	  -1818.32655254	      0.09020771	      0.34699987	      4.48772777	  -5377.52490478	      1.53094641	     -0.66168437	      5.21131186	    430.95826740	   -339.76860815	      0.49017554	     -0.08329449	      0.61187526	    297.94663024
      0.49000000	      0.48217008	      0.49447119	      1.99180791	    374.06305827	  -1423.82883773	      2.29572711	      0.01183155	      0.04278305	     23.44280930	     41.41431064	     53.60307089	   -872.22447243	    456.69872445	  -1813.91348413	      0.09386315	      0.35461115	      4.58616406	  -5495.47849869	      1.66043572	     -0.75973134	      5.13028006	    471.87042439	   -292.81334927	      0.40518380	     -0.11283366	      0.82886786	    403.60903558
      0.50000000	      0.84866252	      0.40350149	      1.81774324	    395.16411203	  -1362.59745844	      2.17333036	     -0.00445442	     -0.01610723	     -8.82589299	     43.62938646	     62.97070130	   -920.03209034	    456.66315504	  -1810.64962030	      0.09658466	      0.38511548	      4.98067466	  -5968.21006449	      1.81814244	     -0.73277585	      5.02419443	    431.36114483	   -298.84250437	      0.40624067	     -0.11481067	      0.84339076	    410.68081942
      0.51000000	      0.80603929	      0.07714496	      1.37540302	    324.77556803	  -1494.88774217	      2.45028472	     -0.05336056	     -0.19295247	   -105.72756397	     44.23544910	     76.91717350	   -966.79740367	    457.05389432	  -1808.33323258	      0.09854298	      0.42557183	      5.50389405	  -6595.16995311	      1.62610486	     -0.74667952	      5.18270371	    457.16742954	   -306.67185179	      0.42953378	     -0.11579727	      0.85063826	    414.20991805
      0.52000000	      0.54014252	      0.21238874	      1.77621191	    370.18826671	  -1411.28609129	      2.27479224	      0.01553518	      0.05617540	     30.78109334	     45.37593966	     94.10369884	  -1012.29013467	    457.18689562	  -1805.87637271	      0.10060190	      0.43499593	      5.62577540	  -6741.21713486	      1.58774043	     -0.79427441	      5.25479755	    442.05014601	   -321.88042347	      0.45654051	     -0.10310426	      0.75739633	    368.80668125
      0.53000000	      0.66119314	      0.34440200	      1.98478779	    373.55600605	  -1429.21009332	      2.30580379	      0.03050276	      0.11029837	     60.43756730	     47.53320397	    113.07693758	  -1053.19233462	    457.41796018	  -1803.88471597	      0.10227891	      0.43527490	      5.62938334	  -6745.54042796	      1.62173177	     -0.91046668	      5.16997782	    433.91140423	   -332.07672949	      0.47520477	     -0.10458866	      0.76830065	    374.11643333
      0.54000000	      0.55871891	      0.01030919	      2.12877385	    417.84738200	  -1391.51594287	      2.21465829	      0.00578454	      0.02091695	     11.46136479	     49.15974960	    131.00206194	  -1090.86637525	    457.75597081	  -1801.62143801	      0.10418951	      0.42587713	      5.50784249	  -6599.90125779	      1.61619223	     -0.87071060	      5.25013590	    436.79855776	   -338.51010902	      0.48922376	     -0.08312170	      0.61060596	    297.32855770
      0.55000000	      0.92978479	      0.28218578	      1.89607776	    380.80896862	  -1461.59079551	      2.36123791	     -0.07454054	     -0.26953955	   -147.69315821	     49.38829023	    147.69045810	  -1119.83647481	    458.07293827	  -1799.40971099	      0.10605572	      0.40815251	      5.27861114	  -6325.21942379	      1.62053073	     -0.69355738	      5.33928285	    444.71500719	   -318.31724063	      0.44996800	     -0.10826121	      0.79527895	    387.25324848
      0.56000000	      0.66328436	      0.21189721	      2.00172910	    381.58495700	  -1473.61147447	      2.38278397	     -0.03914936	     -0.14156461	    -77.56978162	     50.09156857	    163.32332465	  -1140.92996842	    458.24783883	  -1796.58613035	      0.10842338	      0.36245060	      4.68755106	  -5616.96784318	      1.73934551	     -0.75426969	      5.04131693	    455.79606702	   -329.72394322	      0.47649111	     -0.10726264	      0.78794350	    383.68132202
      0.57000000	      0.69504975	      0.01366927	      1.81818800	    376.73573688	  -1426.85590430	      2.29990260	     -0.02983147	     -0.10787097	    -59.10748301	     50.31643105	    180.39921000	  -1151.70550246	    458.44027004	  -1793.90907117	      0.11066989	      0.29634126	      3.83256311	  -4592.45851057	      1.60419911	     -0.56798187	      4.80357674	    475.01762352	   -353.45977408	      0.53060959	     -0.08968652	      0.65883061	    320.81107476
      0.58000000	      0.87068970	      0.13773265	      1.62182385	    377.93961754	  -1510.30184529	      2.45158358	     -0.05217693	     -0.18867246	   -103.38235065	     50.79641329	    197.86983632	  -1148.30433656	    458.80286444	  -1791.53761691	      0.11267235	      0.22180987	      2.86865334	  -3437.43105469	      1.68267699	     -0.84759327	      5.60287784	    442.93201549	   -303.72419129	      0.41950067	     -0.10762614	      0.79061377	    384.98158339
